<mxfile host="app.diagrams.net" modified="2020-10-15T18:22:30.103Z" agent="5.0 (Windows NT 10.0; Win64; x64) AppleWebKit/537.36 (KHTML, like Gecko) Chrome/86.0.4240.75 Safari/537.36" etag="nwLMq2goY-iRceGSTEdp" version="13.8.0" type="github">
  <diagram name="Page-1" id="42789a77-a242-8287-6e28-9cd8cfd52e62">
    <mxGraphModel dx="1151" dy="746" grid="1" gridSize="10" guides="1" tooltips="1" connect="1" arrows="1" fold="1" page="1" pageScale="1" pageWidth="1100" pageHeight="850" background="#ffffff" math="0" shadow="0">
      <root>
        <mxCell id="0" />
        <mxCell id="1" parent="0" />
        <mxCell id="4sNT6OaN_m4o6Sijzj47-1" value="" style="ellipse;whiteSpace=wrap;html=1;aspect=fixed;" vertex="1" parent="1">
          <mxGeometry x="30" y="280" width="50" height="50" as="geometry" />
        </mxCell>
        <mxCell id="4sNT6OaN_m4o6Sijzj47-3" value="" style="endArrow=none;html=1;strokeWidth=6;" edge="1" parent="1">
          <mxGeometry width="50" height="50" relative="1" as="geometry">
            <mxPoint x="130" y="366" as="sourcePoint" />
            <mxPoint x="130" y="256" as="targetPoint" />
          </mxGeometry>
        </mxCell>
        <mxCell id="4sNT6OaN_m4o6Sijzj47-4" value="" style="endArrow=classic;html=1;strokeWidth=2;" edge="1" parent="1">
          <mxGeometry width="50" height="50" relative="1" as="geometry">
            <mxPoint x="80" y="290" as="sourcePoint" />
            <mxPoint x="130" y="290" as="targetPoint" />
          </mxGeometry>
        </mxCell>
        <mxCell id="4sNT6OaN_m4o6Sijzj47-5" value="" style="endArrow=classic;html=1;strokeWidth=2;" edge="1" parent="1">
          <mxGeometry width="50" height="50" relative="1" as="geometry">
            <mxPoint x="130" y="320" as="sourcePoint" />
            <mxPoint x="80" y="320" as="targetPoint" />
            <Array as="points" />
          </mxGeometry>
        </mxCell>
        <mxCell id="4sNT6OaN_m4o6Sijzj47-6" value="&lt;font style=&quot;font-size: 18px&quot;&gt;t=1&lt;/font&gt;" style="text;html=1;strokeColor=none;fillColor=none;align=center;verticalAlign=middle;whiteSpace=wrap;rounded=0;" vertex="1" parent="1">
          <mxGeometry x="110" y="380" width="40" height="20" as="geometry" />
        </mxCell>
        <mxCell id="4sNT6OaN_m4o6Sijzj47-7" value="" style="ellipse;whiteSpace=wrap;html=1;aspect=fixed;" vertex="1" parent="1">
          <mxGeometry x="190" y="230" width="50" height="50" as="geometry" />
        </mxCell>
        <mxCell id="4sNT6OaN_m4o6Sijzj47-8" value="" style="endArrow=classic;html=1;strokeWidth=2;entryX=0;entryY=1;entryDx=0;entryDy=0;" edge="1" parent="1" target="4sNT6OaN_m4o6Sijzj47-7">
          <mxGeometry width="50" height="50" relative="1" as="geometry">
            <mxPoint x="130" y="310" as="sourcePoint" />
            <mxPoint x="190" y="310" as="targetPoint" />
          </mxGeometry>
        </mxCell>
        <mxCell id="4sNT6OaN_m4o6Sijzj47-13" value="" style="endArrow=none;html=1;strokeWidth=2;" edge="1" parent="1">
          <mxGeometry width="50" height="50" relative="1" as="geometry">
            <mxPoint x="160" y="304" as="sourcePoint" />
            <mxPoint x="160" y="284" as="targetPoint" />
          </mxGeometry>
        </mxCell>
        <mxCell id="4sNT6OaN_m4o6Sijzj47-14" value="&lt;font style=&quot;font-size: 18px&quot;&gt;4&lt;/font&gt;" style="text;html=1;strokeColor=none;fillColor=none;align=center;verticalAlign=middle;whiteSpace=wrap;rounded=0;" vertex="1" parent="1">
          <mxGeometry x="140" y="260" width="40" height="20" as="geometry" />
        </mxCell>
        <mxCell id="4sNT6OaN_m4o6Sijzj47-16" value="" style="endArrow=none;html=1;strokeWidth=3;" edge="1" parent="1">
          <mxGeometry width="50" height="50" relative="1" as="geometry">
            <mxPoint x="280" y="310" as="sourcePoint" />
            <mxPoint x="280" y="200" as="targetPoint" />
          </mxGeometry>
        </mxCell>
        <mxCell id="4sNT6OaN_m4o6Sijzj47-17" value="" style="endArrow=classic;html=1;strokeWidth=2;exitX=1;exitY=0.5;exitDx=0;exitDy=0;" edge="1" parent="1" source="4sNT6OaN_m4o6Sijzj47-7">
          <mxGeometry width="50" height="50" relative="1" as="geometry">
            <mxPoint x="90" y="300" as="sourcePoint" />
            <mxPoint x="280" y="255" as="targetPoint" />
          </mxGeometry>
        </mxCell>
        <mxCell id="4sNT6OaN_m4o6Sijzj47-23" value="" style="edgeStyle=orthogonalEdgeStyle;rounded=0;orthogonalLoop=1;jettySize=auto;html=1;strokeWidth=3;" edge="1" parent="1" source="4sNT6OaN_m4o6Sijzj47-18" target="4sNT6OaN_m4o6Sijzj47-22">
          <mxGeometry relative="1" as="geometry" />
        </mxCell>
        <mxCell id="4sNT6OaN_m4o6Sijzj47-18" value="" style="ellipse;whiteSpace=wrap;html=1;aspect=fixed;" vertex="1" parent="1">
          <mxGeometry x="320" y="267" width="50" height="50" as="geometry" />
        </mxCell>
        <mxCell id="4sNT6OaN_m4o6Sijzj47-19" value="" style="endArrow=classic;html=1;strokeWidth=2;entryX=0;entryY=0.5;entryDx=0;entryDy=0;" edge="1" parent="1" target="4sNT6OaN_m4o6Sijzj47-18">
          <mxGeometry width="50" height="50" relative="1" as="geometry">
            <mxPoint x="280" y="255" as="sourcePoint" />
            <mxPoint x="309" y="265" as="targetPoint" />
          </mxGeometry>
        </mxCell>
        <mxCell id="4sNT6OaN_m4o6Sijzj47-20" value="" style="endArrow=none;html=1;strokeWidth=3;" edge="1" parent="1">
          <mxGeometry width="50" height="50" relative="1" as="geometry">
            <mxPoint x="410" y="348" as="sourcePoint" />
            <mxPoint x="410" y="238" as="targetPoint" />
          </mxGeometry>
        </mxCell>
        <mxCell id="4sNT6OaN_m4o6Sijzj47-21" value="" style="endArrow=classic;html=1;strokeWidth=2;exitX=1;exitY=0.5;exitDx=0;exitDy=0;" edge="1" parent="1">
          <mxGeometry width="50" height="50" relative="1" as="geometry">
            <mxPoint x="370.0000000000002" y="292" as="sourcePoint" />
            <mxPoint x="410" y="292" as="targetPoint" />
          </mxGeometry>
        </mxCell>
        <mxCell id="4sNT6OaN_m4o6Sijzj47-22" value="" style="ellipse;whiteSpace=wrap;html=1;aspect=fixed;" vertex="1" parent="1">
          <mxGeometry x="450" y="268" width="50" height="50" as="geometry" />
        </mxCell>
        <mxCell id="4sNT6OaN_m4o6Sijzj47-24" value="" style="endArrow=none;html=1;strokeWidth=3;" edge="1" parent="1">
          <mxGeometry width="50" height="50" relative="1" as="geometry">
            <mxPoint x="539.9999999999998" y="348" as="sourcePoint" />
            <mxPoint x="539.9999999999998" y="238" as="targetPoint" />
          </mxGeometry>
        </mxCell>
        <mxCell id="4sNT6OaN_m4o6Sijzj47-25" value="" style="endArrow=classic;html=1;strokeWidth=2;exitX=1;exitY=0.5;exitDx=0;exitDy=0;" edge="1" parent="1">
          <mxGeometry width="50" height="50" relative="1" as="geometry">
            <mxPoint x="500.0000000000002" y="293" as="sourcePoint" />
            <mxPoint x="539.9999999999998" y="293" as="targetPoint" />
          </mxGeometry>
        </mxCell>
        <mxCell id="4sNT6OaN_m4o6Sijzj47-26" value="" style="endArrow=classic;html=1;strokeWidth=2;exitX=1;exitY=0.5;exitDx=0;exitDy=0;" edge="1" parent="1">
          <mxGeometry width="50" height="50" relative="1" as="geometry">
            <mxPoint x="541.0000000000002" y="294" as="sourcePoint" />
            <mxPoint x="580.9999999999998" y="294" as="targetPoint" />
            <Array as="points">
              <mxPoint x="581" y="294" />
            </Array>
          </mxGeometry>
        </mxCell>
        <mxCell id="4sNT6OaN_m4o6Sijzj47-27" value="" style="ellipse;whiteSpace=wrap;html=1;aspect=fixed;" vertex="1" parent="1">
          <mxGeometry x="580" y="268" width="50" height="50" as="geometry" />
        </mxCell>
        <mxCell id="4sNT6OaN_m4o6Sijzj47-28" value="" style="endArrow=none;html=1;strokeWidth=3;" edge="1" parent="1">
          <mxGeometry width="50" height="50" relative="1" as="geometry">
            <mxPoint x="669.9999999999998" y="348" as="sourcePoint" />
            <mxPoint x="669.9999999999998" y="238" as="targetPoint" />
          </mxGeometry>
        </mxCell>
        <mxCell id="4sNT6OaN_m4o6Sijzj47-29" value="" style="endArrow=classic;html=1;strokeWidth=2;exitX=1;exitY=0.5;exitDx=0;exitDy=0;" edge="1" parent="1">
          <mxGeometry width="50" height="50" relative="1" as="geometry">
            <mxPoint x="630.0000000000002" y="293" as="sourcePoint" />
            <mxPoint x="669.9999999999998" y="293" as="targetPoint" />
          </mxGeometry>
        </mxCell>
        <mxCell id="4sNT6OaN_m4o6Sijzj47-30" value="" style="endArrow=classic;html=1;strokeWidth=2;exitX=1;exitY=0.5;exitDx=0;exitDy=0;" edge="1" parent="1">
          <mxGeometry width="50" height="50" relative="1" as="geometry">
            <mxPoint x="670.0000000000002" y="293" as="sourcePoint" />
            <mxPoint x="710" y="293" as="targetPoint" />
            <Array as="points">
              <mxPoint x="710" y="293" />
            </Array>
          </mxGeometry>
        </mxCell>
        <mxCell id="4sNT6OaN_m4o6Sijzj47-31" value="" style="ellipse;whiteSpace=wrap;html=1;aspect=fixed;" vertex="1" parent="1">
          <mxGeometry x="709" y="267" width="50" height="50" as="geometry" />
        </mxCell>
        <mxCell id="4sNT6OaN_m4o6Sijzj47-32" value="" style="endArrow=none;html=1;strokeWidth=3;" edge="1" parent="1">
          <mxGeometry width="50" height="50" relative="1" as="geometry">
            <mxPoint x="798.9999999999998" y="310" as="sourcePoint" />
            <mxPoint x="798.9999999999998" y="200" as="targetPoint" />
          </mxGeometry>
        </mxCell>
        <mxCell id="4sNT6OaN_m4o6Sijzj47-33" value="" style="endArrow=classic;html=1;strokeWidth=2;exitX=1;exitY=0.5;exitDx=0;exitDy=0;" edge="1" parent="1" source="4sNT6OaN_m4o6Sijzj47-31">
          <mxGeometry width="50" height="50" relative="1" as="geometry">
            <mxPoint x="759.0000000000002" y="255" as="sourcePoint" />
            <mxPoint x="798.9999999999998" y="255" as="targetPoint" />
          </mxGeometry>
        </mxCell>
        <mxCell id="4sNT6OaN_m4o6Sijzj47-34" value="" style="endArrow=classic;html=1;strokeWidth=3;" edge="1" parent="1">
          <mxGeometry width="50" height="50" relative="1" as="geometry">
            <mxPoint x="800" y="220" as="sourcePoint" />
            <mxPoint x="280" y="220" as="targetPoint" />
          </mxGeometry>
        </mxCell>
        <mxCell id="4sNT6OaN_m4o6Sijzj47-35" value="" style="endArrow=none;html=1;strokeWidth=6;" edge="1" parent="1">
          <mxGeometry width="50" height="50" relative="1" as="geometry">
            <mxPoint x="250" y="428" as="sourcePoint" />
            <mxPoint x="250" y="318" as="targetPoint" />
          </mxGeometry>
        </mxCell>
        <mxCell id="4sNT6OaN_m4o6Sijzj47-37" value="" style="endArrow=classic;html=1;strokeWidth=3;exitX=0.5;exitY=1;exitDx=0;exitDy=0;" edge="1" parent="1" source="4sNT6OaN_m4o6Sijzj47-7">
          <mxGeometry width="50" height="50" relative="1" as="geometry">
            <mxPoint x="530" y="370" as="sourcePoint" />
            <mxPoint x="240" y="360" as="targetPoint" />
          </mxGeometry>
        </mxCell>
        <mxCell id="4sNT6OaN_m4o6Sijzj47-38" value="" style="ellipse;whiteSpace=wrap;html=1;aspect=fixed;" vertex="1" parent="1">
          <mxGeometry x="170" y="375" width="50" height="50" as="geometry" />
        </mxCell>
        <mxCell id="4sNT6OaN_m4o6Sijzj47-41" value="" style="endArrow=classic;html=1;strokeWidth=3;entryX=1;entryY=1;entryDx=0;entryDy=0;" edge="1" parent="1" target="4sNT6OaN_m4o6Sijzj47-38">
          <mxGeometry width="50" height="50" relative="1" as="geometry">
            <mxPoint x="250" y="418" as="sourcePoint" />
            <mxPoint x="580" y="320" as="targetPoint" />
          </mxGeometry>
        </mxCell>
        <mxCell id="4sNT6OaN_m4o6Sijzj47-42" value="" style="endArrow=classic;html=1;strokeWidth=3;exitX=1;exitY=0.5;exitDx=0;exitDy=0;" edge="1" parent="1" source="4sNT6OaN_m4o6Sijzj47-38">
          <mxGeometry width="50" height="50" relative="1" as="geometry">
            <mxPoint x="260" y="428" as="sourcePoint" />
            <mxPoint x="250" y="400" as="targetPoint" />
          </mxGeometry>
        </mxCell>
        <mxCell id="4sNT6OaN_m4o6Sijzj47-56" value="" style="ellipse;whiteSpace=wrap;html=1;aspect=fixed;" vertex="1" parent="1">
          <mxGeometry x="270" y="470" width="50" height="50" as="geometry" />
        </mxCell>
        <mxCell id="4sNT6OaN_m4o6Sijzj47-57" value="" style="endArrow=classic;html=1;strokeWidth=2;entryX=0;entryY=0.5;entryDx=0;entryDy=0;" edge="1" parent="1" target="4sNT6OaN_m4o6Sijzj47-56">
          <mxGeometry width="50" height="50" relative="1" as="geometry">
            <mxPoint x="250" y="417" as="sourcePoint" />
            <mxPoint x="279" y="427" as="targetPoint" />
          </mxGeometry>
        </mxCell>
        <mxCell id="4sNT6OaN_m4o6Sijzj47-58" value="" style="endArrow=none;html=1;strokeWidth=3;" edge="1" parent="1">
          <mxGeometry width="50" height="50" relative="1" as="geometry">
            <mxPoint x="359.9999999999998" y="610" as="sourcePoint" />
            <mxPoint x="359.9999999999998" y="500" as="targetPoint" />
          </mxGeometry>
        </mxCell>
        <mxCell id="4sNT6OaN_m4o6Sijzj47-59" value="" style="endArrow=classic;html=1;strokeWidth=2;exitX=1;exitY=1;exitDx=0;exitDy=0;" edge="1" parent="1" source="4sNT6OaN_m4o6Sijzj47-56">
          <mxGeometry width="50" height="50" relative="1" as="geometry">
            <mxPoint x="324.29000000000025" y="514" as="sourcePoint" />
            <mxPoint x="360" y="560" as="targetPoint" />
          </mxGeometry>
        </mxCell>
        <mxCell id="4sNT6OaN_m4o6Sijzj47-60" value="" style="endArrow=none;html=1;strokeWidth=6;" edge="1" parent="1">
          <mxGeometry width="50" height="50" relative="1" as="geometry">
            <mxPoint x="400" y="458" as="sourcePoint" />
            <mxPoint x="400" y="348" as="targetPoint" />
          </mxGeometry>
        </mxCell>
        <mxCell id="4sNT6OaN_m4o6Sijzj47-61" value="" style="endArrow=classic;html=1;strokeWidth=3;exitX=0.5;exitY=1;exitDx=0;exitDy=0;" edge="1" parent="1">
          <mxGeometry width="50" height="50" relative="1" as="geometry">
            <mxPoint x="365" y="310" as="sourcePoint" />
            <mxPoint x="390" y="390" as="targetPoint" />
          </mxGeometry>
        </mxCell>
        <mxCell id="4sNT6OaN_m4o6Sijzj47-62" value="" style="ellipse;whiteSpace=wrap;html=1;aspect=fixed;" vertex="1" parent="1">
          <mxGeometry x="320" y="405" width="50" height="50" as="geometry" />
        </mxCell>
        <mxCell id="4sNT6OaN_m4o6Sijzj47-63" value="" style="endArrow=classic;html=1;strokeWidth=3;entryX=1;entryY=1;entryDx=0;entryDy=0;" edge="1" parent="1" target="4sNT6OaN_m4o6Sijzj47-62">
          <mxGeometry width="50" height="50" relative="1" as="geometry">
            <mxPoint x="400" y="448" as="sourcePoint" />
            <mxPoint x="730" y="350" as="targetPoint" />
          </mxGeometry>
        </mxCell>
        <mxCell id="4sNT6OaN_m4o6Sijzj47-64" value="" style="endArrow=classic;html=1;strokeWidth=3;exitX=1;exitY=0.5;exitDx=0;exitDy=0;" edge="1" parent="1" source="4sNT6OaN_m4o6Sijzj47-62">
          <mxGeometry width="50" height="50" relative="1" as="geometry">
            <mxPoint x="410" y="458" as="sourcePoint" />
            <mxPoint x="400" y="430" as="targetPoint" />
          </mxGeometry>
        </mxCell>
        <mxCell id="4sNT6OaN_m4o6Sijzj47-69" value="" style="ellipse;whiteSpace=wrap;html=1;aspect=fixed;" vertex="1" parent="1">
          <mxGeometry x="420" y="478" width="50" height="50" as="geometry" />
        </mxCell>
        <mxCell id="4sNT6OaN_m4o6Sijzj47-70" value="" style="endArrow=classic;html=1;strokeWidth=2;entryX=0;entryY=0.5;entryDx=0;entryDy=0;" edge="1" parent="1" target="4sNT6OaN_m4o6Sijzj47-69">
          <mxGeometry width="50" height="50" relative="1" as="geometry">
            <mxPoint x="400" y="425" as="sourcePoint" />
            <mxPoint x="429" y="435" as="targetPoint" />
          </mxGeometry>
        </mxCell>
        <mxCell id="4sNT6OaN_m4o6Sijzj47-71" value="" style="endArrow=none;html=1;strokeWidth=3;" edge="1" parent="1">
          <mxGeometry width="50" height="50" relative="1" as="geometry">
            <mxPoint x="509.9999999999998" y="618" as="sourcePoint" />
            <mxPoint x="509.9999999999998" y="508" as="targetPoint" />
          </mxGeometry>
        </mxCell>
        <mxCell id="4sNT6OaN_m4o6Sijzj47-72" value="" style="endArrow=classic;html=1;strokeWidth=2;exitX=1;exitY=1;exitDx=0;exitDy=0;" edge="1" parent="1" source="4sNT6OaN_m4o6Sijzj47-69">
          <mxGeometry width="50" height="50" relative="1" as="geometry">
            <mxPoint x="474.29000000000025" y="522" as="sourcePoint" />
            <mxPoint x="510.0000000000002" y="568" as="targetPoint" />
          </mxGeometry>
        </mxCell>
        <mxCell id="4sNT6OaN_m4o6Sijzj47-73" value="" style="endArrow=none;html=1;strokeWidth=6;" edge="1" parent="1">
          <mxGeometry width="50" height="50" relative="1" as="geometry">
            <mxPoint x="529.9999999999998" y="458" as="sourcePoint" />
            <mxPoint x="529.9999999999998" y="348" as="targetPoint" />
          </mxGeometry>
        </mxCell>
        <mxCell id="4sNT6OaN_m4o6Sijzj47-74" value="" style="endArrow=classic;html=1;strokeWidth=3;exitX=0.5;exitY=1;exitDx=0;exitDy=0;" edge="1" parent="1">
          <mxGeometry width="50" height="50" relative="1" as="geometry">
            <mxPoint x="495.0000000000002" y="310" as="sourcePoint" />
            <mxPoint x="519.9999999999998" y="390" as="targetPoint" />
          </mxGeometry>
        </mxCell>
        <mxCell id="4sNT6OaN_m4o6Sijzj47-75" value="" style="ellipse;whiteSpace=wrap;html=1;aspect=fixed;" vertex="1" parent="1">
          <mxGeometry x="450" y="405" width="50" height="50" as="geometry" />
        </mxCell>
        <mxCell id="4sNT6OaN_m4o6Sijzj47-76" value="" style="endArrow=classic;html=1;strokeWidth=3;entryX=1;entryY=1;entryDx=0;entryDy=0;" edge="1" parent="1" target="4sNT6OaN_m4o6Sijzj47-75">
          <mxGeometry width="50" height="50" relative="1" as="geometry">
            <mxPoint x="529.9999999999998" y="448" as="sourcePoint" />
            <mxPoint x="860" y="350" as="targetPoint" />
          </mxGeometry>
        </mxCell>
        <mxCell id="4sNT6OaN_m4o6Sijzj47-77" value="" style="endArrow=classic;html=1;strokeWidth=3;exitX=1;exitY=0.5;exitDx=0;exitDy=0;" edge="1" parent="1" source="4sNT6OaN_m4o6Sijzj47-75">
          <mxGeometry width="50" height="50" relative="1" as="geometry">
            <mxPoint x="540" y="458" as="sourcePoint" />
            <mxPoint x="529.9999999999998" y="430" as="targetPoint" />
          </mxGeometry>
        </mxCell>
        <mxCell id="4sNT6OaN_m4o6Sijzj47-78" value="" style="ellipse;whiteSpace=wrap;html=1;aspect=fixed;" vertex="1" parent="1">
          <mxGeometry x="550" y="478" width="50" height="50" as="geometry" />
        </mxCell>
        <mxCell id="4sNT6OaN_m4o6Sijzj47-79" value="" style="endArrow=classic;html=1;strokeWidth=2;entryX=0;entryY=0.5;entryDx=0;entryDy=0;" edge="1" parent="1" target="4sNT6OaN_m4o6Sijzj47-78">
          <mxGeometry width="50" height="50" relative="1" as="geometry">
            <mxPoint x="529.9999999999998" y="425" as="sourcePoint" />
            <mxPoint x="559" y="435" as="targetPoint" />
          </mxGeometry>
        </mxCell>
        <mxCell id="4sNT6OaN_m4o6Sijzj47-80" value="" style="endArrow=none;html=1;strokeWidth=3;" edge="1" parent="1">
          <mxGeometry width="50" height="50" relative="1" as="geometry">
            <mxPoint x="639.9999999999998" y="618" as="sourcePoint" />
            <mxPoint x="639.9999999999998" y="508" as="targetPoint" />
          </mxGeometry>
        </mxCell>
        <mxCell id="4sNT6OaN_m4o6Sijzj47-81" value="" style="endArrow=classic;html=1;strokeWidth=2;exitX=1;exitY=1;exitDx=0;exitDy=0;" edge="1" parent="1" source="4sNT6OaN_m4o6Sijzj47-78">
          <mxGeometry width="50" height="50" relative="1" as="geometry">
            <mxPoint x="604.2900000000002" y="522" as="sourcePoint" />
            <mxPoint x="640.0000000000002" y="568" as="targetPoint" />
          </mxGeometry>
        </mxCell>
        <mxCell id="4sNT6OaN_m4o6Sijzj47-82" value="" style="endArrow=none;html=1;strokeWidth=6;" edge="1" parent="1">
          <mxGeometry width="50" height="50" relative="1" as="geometry">
            <mxPoint x="659.9999999999998" y="458" as="sourcePoint" />
            <mxPoint x="659.9999999999998" y="348" as="targetPoint" />
          </mxGeometry>
        </mxCell>
        <mxCell id="4sNT6OaN_m4o6Sijzj47-83" value="" style="endArrow=classic;html=1;strokeWidth=3;exitX=0.5;exitY=1;exitDx=0;exitDy=0;" edge="1" parent="1">
          <mxGeometry width="50" height="50" relative="1" as="geometry">
            <mxPoint x="625.0000000000002" y="310" as="sourcePoint" />
            <mxPoint x="649.9999999999998" y="390" as="targetPoint" />
          </mxGeometry>
        </mxCell>
        <mxCell id="4sNT6OaN_m4o6Sijzj47-84" value="" style="ellipse;whiteSpace=wrap;html=1;aspect=fixed;" vertex="1" parent="1">
          <mxGeometry x="580" y="405" width="50" height="50" as="geometry" />
        </mxCell>
        <mxCell id="4sNT6OaN_m4o6Sijzj47-85" value="" style="endArrow=classic;html=1;strokeWidth=3;entryX=1;entryY=1;entryDx=0;entryDy=0;" edge="1" parent="1" target="4sNT6OaN_m4o6Sijzj47-84">
          <mxGeometry width="50" height="50" relative="1" as="geometry">
            <mxPoint x="659.9999999999998" y="448" as="sourcePoint" />
            <mxPoint x="990" y="350" as="targetPoint" />
          </mxGeometry>
        </mxCell>
        <mxCell id="4sNT6OaN_m4o6Sijzj47-86" value="" style="endArrow=classic;html=1;strokeWidth=3;exitX=1;exitY=0.5;exitDx=0;exitDy=0;" edge="1" parent="1" source="4sNT6OaN_m4o6Sijzj47-84">
          <mxGeometry width="50" height="50" relative="1" as="geometry">
            <mxPoint x="670" y="458" as="sourcePoint" />
            <mxPoint x="659.9999999999998" y="430" as="targetPoint" />
          </mxGeometry>
        </mxCell>
        <mxCell id="4sNT6OaN_m4o6Sijzj47-87" value="" style="ellipse;whiteSpace=wrap;html=1;aspect=fixed;" vertex="1" parent="1">
          <mxGeometry x="680" y="478" width="50" height="50" as="geometry" />
        </mxCell>
        <mxCell id="4sNT6OaN_m4o6Sijzj47-88" value="" style="endArrow=classic;html=1;strokeWidth=2;entryX=0;entryY=0.5;entryDx=0;entryDy=0;" edge="1" parent="1" target="4sNT6OaN_m4o6Sijzj47-87">
          <mxGeometry width="50" height="50" relative="1" as="geometry">
            <mxPoint x="659.9999999999998" y="425" as="sourcePoint" />
            <mxPoint x="689" y="435" as="targetPoint" />
          </mxGeometry>
        </mxCell>
        <mxCell id="4sNT6OaN_m4o6Sijzj47-89" value="" style="endArrow=none;html=1;strokeWidth=3;" edge="1" parent="1">
          <mxGeometry width="50" height="50" relative="1" as="geometry">
            <mxPoint x="769.9999999999998" y="618" as="sourcePoint" />
            <mxPoint x="769.9999999999998" y="508" as="targetPoint" />
          </mxGeometry>
        </mxCell>
        <mxCell id="4sNT6OaN_m4o6Sijzj47-90" value="" style="endArrow=classic;html=1;strokeWidth=2;exitX=1;exitY=1;exitDx=0;exitDy=0;" edge="1" parent="1" source="4sNT6OaN_m4o6Sijzj47-87">
          <mxGeometry width="50" height="50" relative="1" as="geometry">
            <mxPoint x="734.2900000000002" y="522" as="sourcePoint" />
            <mxPoint x="770.0000000000002" y="568" as="targetPoint" />
          </mxGeometry>
        </mxCell>
        <mxCell id="4sNT6OaN_m4o6Sijzj47-91" value="" style="endArrow=none;html=1;strokeWidth=6;" edge="1" parent="1">
          <mxGeometry width="50" height="50" relative="1" as="geometry">
            <mxPoint x="788.9999999999998" y="458" as="sourcePoint" />
            <mxPoint x="788.9999999999998" y="348" as="targetPoint" />
          </mxGeometry>
        </mxCell>
        <mxCell id="4sNT6OaN_m4o6Sijzj47-92" value="" style="endArrow=classic;html=1;strokeWidth=3;exitX=0.5;exitY=1;exitDx=0;exitDy=0;" edge="1" parent="1">
          <mxGeometry width="50" height="50" relative="1" as="geometry">
            <mxPoint x="754.0000000000002" y="310" as="sourcePoint" />
            <mxPoint x="778.9999999999998" y="390" as="targetPoint" />
          </mxGeometry>
        </mxCell>
        <mxCell id="4sNT6OaN_m4o6Sijzj47-93" value="" style="ellipse;whiteSpace=wrap;html=1;aspect=fixed;" vertex="1" parent="1">
          <mxGeometry x="709" y="405" width="50" height="50" as="geometry" />
        </mxCell>
        <mxCell id="4sNT6OaN_m4o6Sijzj47-94" value="" style="endArrow=classic;html=1;strokeWidth=3;entryX=1;entryY=1;entryDx=0;entryDy=0;" edge="1" parent="1" target="4sNT6OaN_m4o6Sijzj47-93">
          <mxGeometry width="50" height="50" relative="1" as="geometry">
            <mxPoint x="788.9999999999998" y="448" as="sourcePoint" />
            <mxPoint x="1119" y="350" as="targetPoint" />
          </mxGeometry>
        </mxCell>
        <mxCell id="4sNT6OaN_m4o6Sijzj47-95" value="" style="endArrow=classic;html=1;strokeWidth=3;exitX=1;exitY=0.5;exitDx=0;exitDy=0;" edge="1" parent="1" source="4sNT6OaN_m4o6Sijzj47-93">
          <mxGeometry width="50" height="50" relative="1" as="geometry">
            <mxPoint x="799" y="458" as="sourcePoint" />
            <mxPoint x="788.9999999999998" y="430" as="targetPoint" />
          </mxGeometry>
        </mxCell>
        <mxCell id="4sNT6OaN_m4o6Sijzj47-96" value="" style="ellipse;whiteSpace=wrap;html=1;aspect=fixed;" vertex="1" parent="1">
          <mxGeometry x="809" y="478" width="50" height="50" as="geometry" />
        </mxCell>
        <mxCell id="4sNT6OaN_m4o6Sijzj47-97" value="" style="endArrow=classic;html=1;strokeWidth=2;entryX=0;entryY=0.5;entryDx=0;entryDy=0;" edge="1" parent="1" target="4sNT6OaN_m4o6Sijzj47-96">
          <mxGeometry width="50" height="50" relative="1" as="geometry">
            <mxPoint x="788.9999999999998" y="425" as="sourcePoint" />
            <mxPoint x="818" y="435" as="targetPoint" />
          </mxGeometry>
        </mxCell>
        <mxCell id="4sNT6OaN_m4o6Sijzj47-98" value="" style="endArrow=none;html=1;strokeWidth=3;" edge="1" parent="1">
          <mxGeometry width="50" height="50" relative="1" as="geometry">
            <mxPoint x="898.9999999999998" y="618" as="sourcePoint" />
            <mxPoint x="898.9999999999998" y="508" as="targetPoint" />
          </mxGeometry>
        </mxCell>
        <mxCell id="4sNT6OaN_m4o6Sijzj47-99" value="" style="endArrow=classic;html=1;strokeWidth=2;exitX=1;exitY=1;exitDx=0;exitDy=0;" edge="1" parent="1" source="4sNT6OaN_m4o6Sijzj47-96">
          <mxGeometry width="50" height="50" relative="1" as="geometry">
            <mxPoint x="863.2900000000002" y="522" as="sourcePoint" />
            <mxPoint x="899.0000000000002" y="568" as="targetPoint" />
          </mxGeometry>
        </mxCell>
        <mxCell id="4sNT6OaN_m4o6Sijzj47-100" value="" style="ellipse;whiteSpace=wrap;html=1;aspect=fixed;" vertex="1" parent="1">
          <mxGeometry x="570" y="650" width="50" height="50" as="geometry" />
        </mxCell>
        <mxCell id="4sNT6OaN_m4o6Sijzj47-101" value="" style="endArrow=classic;html=1;strokeWidth=3;entryX=0;entryY=0.5;entryDx=0;entryDy=0;" edge="1" parent="1" target="4sNT6OaN_m4o6Sijzj47-100">
          <mxGeometry width="50" height="50" relative="1" as="geometry">
            <mxPoint x="360" y="590" as="sourcePoint" />
            <mxPoint x="580" y="510" as="targetPoint" />
          </mxGeometry>
        </mxCell>
        <mxCell id="4sNT6OaN_m4o6Sijzj47-102" value="" style="endArrow=classic;html=1;strokeWidth=3;entryX=0;entryY=0;entryDx=0;entryDy=0;" edge="1" parent="1" target="4sNT6OaN_m4o6Sijzj47-100">
          <mxGeometry width="50" height="50" relative="1" as="geometry">
            <mxPoint x="510" y="590" as="sourcePoint" />
            <mxPoint x="580" y="510" as="targetPoint" />
          </mxGeometry>
        </mxCell>
        <mxCell id="4sNT6OaN_m4o6Sijzj47-103" value="" style="endArrow=classic;html=1;strokeWidth=3;entryX=0.5;entryY=0;entryDx=0;entryDy=0;" edge="1" parent="1" target="4sNT6OaN_m4o6Sijzj47-100">
          <mxGeometry width="50" height="50" relative="1" as="geometry">
            <mxPoint x="640" y="600" as="sourcePoint" />
            <mxPoint x="580" y="510" as="targetPoint" />
          </mxGeometry>
        </mxCell>
        <mxCell id="4sNT6OaN_m4o6Sijzj47-104" value="" style="endArrow=classic;html=1;strokeWidth=3;entryX=1;entryY=0;entryDx=0;entryDy=0;" edge="1" parent="1" target="4sNT6OaN_m4o6Sijzj47-100">
          <mxGeometry width="50" height="50" relative="1" as="geometry">
            <mxPoint x="770" y="600" as="sourcePoint" />
            <mxPoint x="580" y="510" as="targetPoint" />
          </mxGeometry>
        </mxCell>
        <mxCell id="4sNT6OaN_m4o6Sijzj47-105" value="" style="endArrow=classic;html=1;strokeWidth=3;entryX=1;entryY=0.5;entryDx=0;entryDy=0;" edge="1" parent="1" target="4sNT6OaN_m4o6Sijzj47-100">
          <mxGeometry width="50" height="50" relative="1" as="geometry">
            <mxPoint x="900" y="600" as="sourcePoint" />
            <mxPoint x="580" y="510" as="targetPoint" />
          </mxGeometry>
        </mxCell>
        <mxCell id="4sNT6OaN_m4o6Sijzj47-106" value="&lt;font style=&quot;font-size: 64px&quot;&gt;.&lt;/font&gt;" style="text;html=1;strokeColor=none;fillColor=none;align=center;verticalAlign=middle;whiteSpace=wrap;rounded=0;" vertex="1" parent="1">
          <mxGeometry x="35" y="280" width="40" height="20" as="geometry" />
        </mxCell>
        <mxCell id="4sNT6OaN_m4o6Sijzj47-107" value="&lt;font style=&quot;font-size: 64px&quot;&gt;.&lt;/font&gt;" style="text;html=1;strokeColor=none;fillColor=none;align=center;verticalAlign=middle;whiteSpace=wrap;rounded=0;" vertex="1" parent="1">
          <mxGeometry x="175" y="375" width="40" height="20" as="geometry" />
        </mxCell>
        <mxCell id="4sNT6OaN_m4o6Sijzj47-108" value="&lt;font style=&quot;font-size: 64px&quot;&gt;.&lt;/font&gt;" style="text;html=1;strokeColor=none;fillColor=none;align=center;verticalAlign=middle;whiteSpace=wrap;rounded=0;" vertex="1" parent="1">
          <mxGeometry x="325" y="405" width="40" height="20" as="geometry" />
        </mxCell>
        <mxCell id="4sNT6OaN_m4o6Sijzj47-109" value="&lt;font style=&quot;font-size: 64px&quot;&gt;.&lt;/font&gt;" style="text;html=1;strokeColor=none;fillColor=none;align=center;verticalAlign=middle;whiteSpace=wrap;rounded=0;" vertex="1" parent="1">
          <mxGeometry x="455" y="405" width="40" height="20" as="geometry" />
        </mxCell>
        <mxCell id="4sNT6OaN_m4o6Sijzj47-110" value="&lt;font style=&quot;font-size: 64px&quot;&gt;.&lt;/font&gt;" style="text;html=1;strokeColor=none;fillColor=none;align=center;verticalAlign=middle;whiteSpace=wrap;rounded=0;" vertex="1" parent="1">
          <mxGeometry x="585" y="405" width="40" height="20" as="geometry" />
        </mxCell>
        <mxCell id="4sNT6OaN_m4o6Sijzj47-111" value="&lt;font style=&quot;font-size: 64px&quot;&gt;.&lt;/font&gt;" style="text;html=1;strokeColor=none;fillColor=none;align=center;verticalAlign=middle;whiteSpace=wrap;rounded=0;" vertex="1" parent="1">
          <mxGeometry x="714" y="405" width="40" height="20" as="geometry" />
        </mxCell>
        <mxCell id="4sNT6OaN_m4o6Sijzj47-112" value="&lt;font style=&quot;font-size: 18px&quot;&gt;Надходження&lt;/font&gt;" style="text;html=1;strokeColor=none;fillColor=none;align=center;verticalAlign=middle;whiteSpace=wrap;rounded=0;" vertex="1" parent="1">
          <mxGeometry x="110" y="220" width="40" height="20" as="geometry" />
        </mxCell>
        <mxCell id="4sNT6OaN_m4o6Sijzj47-113" value="&lt;font style=&quot;font-size: 14px&quot;&gt;Перехід з 1 на 2 верстат&lt;/font&gt;" style="text;html=1;strokeColor=none;fillColor=none;align=center;verticalAlign=middle;whiteSpace=wrap;rounded=0;" vertex="1" parent="1">
          <mxGeometry x="210" y="170" width="90" height="20" as="geometry" />
        </mxCell>
        <mxCell id="4sNT6OaN_m4o6Sijzj47-114" value="&lt;font style=&quot;font-size: 14px&quot;&gt;Перехід з 2 на 3 верстат&lt;/font&gt;" style="text;html=1;strokeColor=none;fillColor=none;align=center;verticalAlign=middle;whiteSpace=wrap;rounded=0;" vertex="1" parent="1">
          <mxGeometry x="320" y="230" width="90" height="20" as="geometry" />
        </mxCell>
        <mxCell id="4sNT6OaN_m4o6Sijzj47-115" value="&lt;font style=&quot;font-size: 14px&quot;&gt;Перехід з 3 на 4 верстат&lt;/font&gt;" style="text;html=1;strokeColor=none;fillColor=none;align=center;verticalAlign=middle;whiteSpace=wrap;rounded=0;" vertex="1" parent="1">
          <mxGeometry x="440" y="230" width="90" height="20" as="geometry" />
        </mxCell>
        <mxCell id="4sNT6OaN_m4o6Sijzj47-116" value="&lt;font style=&quot;font-size: 14px&quot;&gt;Перехід з 4 на 5 верстат&lt;/font&gt;" style="text;html=1;strokeColor=none;fillColor=none;align=center;verticalAlign=middle;whiteSpace=wrap;rounded=0;" vertex="1" parent="1">
          <mxGeometry x="580" y="230" width="90" height="20" as="geometry" />
        </mxCell>
        <mxCell id="4sNT6OaN_m4o6Sijzj47-117" value="&lt;font style=&quot;font-size: 14px&quot;&gt;Перехід з 5 на 1 верстат&lt;/font&gt;" style="text;html=1;strokeColor=none;fillColor=none;align=center;verticalAlign=middle;whiteSpace=wrap;rounded=0;" vertex="1" parent="1">
          <mxGeometry x="709" y="230" width="90" height="20" as="geometry" />
        </mxCell>
        <mxCell id="4sNT6OaN_m4o6Sijzj47-118" value="&lt;span style=&quot;font-size: 14px&quot;&gt;Обробка верстат 1&lt;/span&gt;" style="text;html=1;strokeColor=none;fillColor=none;align=center;verticalAlign=middle;whiteSpace=wrap;rounded=0;" vertex="1" parent="1">
          <mxGeometry x="240" y="355" width="90" height="20" as="geometry" />
        </mxCell>
        <mxCell id="4sNT6OaN_m4o6Sijzj47-120" value="&lt;span style=&quot;font-size: 14px&quot;&gt;Обробка верстат 2&lt;/span&gt;" style="text;html=1;strokeColor=none;fillColor=none;align=center;verticalAlign=middle;whiteSpace=wrap;rounded=0;" vertex="1" parent="1">
          <mxGeometry x="390" y="370" width="90" height="20" as="geometry" />
        </mxCell>
        <mxCell id="4sNT6OaN_m4o6Sijzj47-121" value="&lt;span style=&quot;font-size: 14px&quot;&gt;Обробка верстат 3&lt;/span&gt;" style="text;html=1;strokeColor=none;fillColor=none;align=center;verticalAlign=middle;whiteSpace=wrap;rounded=0;" vertex="1" parent="1">
          <mxGeometry x="520" y="370" width="90" height="20" as="geometry" />
        </mxCell>
        <mxCell id="4sNT6OaN_m4o6Sijzj47-122" value="&lt;span style=&quot;font-size: 14px&quot;&gt;Обробка верстат 4&lt;/span&gt;" style="text;html=1;strokeColor=none;fillColor=none;align=center;verticalAlign=middle;whiteSpace=wrap;rounded=0;" vertex="1" parent="1">
          <mxGeometry x="650" y="370" width="90" height="20" as="geometry" />
        </mxCell>
        <mxCell id="4sNT6OaN_m4o6Sijzj47-123" value="&lt;span style=&quot;font-size: 14px&quot;&gt;Обробка верстат 5&lt;/span&gt;" style="text;html=1;strokeColor=none;fillColor=none;align=center;verticalAlign=middle;whiteSpace=wrap;rounded=0;" vertex="1" parent="1">
          <mxGeometry x="780" y="370" width="90" height="20" as="geometry" />
        </mxCell>
        <mxCell id="4sNT6OaN_m4o6Sijzj47-124" value="&lt;span style=&quot;font-size: 14px&quot;&gt;Вихід&lt;/span&gt;" style="text;html=1;strokeColor=none;fillColor=none;align=center;verticalAlign=middle;whiteSpace=wrap;rounded=0;" vertex="1" parent="1">
          <mxGeometry x="290" y="570" width="90" height="20" as="geometry" />
        </mxCell>
        <mxCell id="4sNT6OaN_m4o6Sijzj47-125" value="&lt;span style=&quot;font-size: 14px&quot;&gt;Вихід&lt;/span&gt;" style="text;html=1;strokeColor=none;fillColor=none;align=center;verticalAlign=middle;whiteSpace=wrap;rounded=0;" vertex="1" parent="1">
          <mxGeometry x="440" y="570" width="90" height="20" as="geometry" />
        </mxCell>
        <mxCell id="4sNT6OaN_m4o6Sijzj47-126" value="&lt;span style=&quot;font-size: 14px&quot;&gt;Вихід&lt;/span&gt;" style="text;html=1;strokeColor=none;fillColor=none;align=center;verticalAlign=middle;whiteSpace=wrap;rounded=0;" vertex="1" parent="1">
          <mxGeometry x="570" y="570" width="90" height="20" as="geometry" />
        </mxCell>
        <mxCell id="4sNT6OaN_m4o6Sijzj47-128" value="&lt;span style=&quot;font-size: 14px&quot;&gt;Вихід&lt;/span&gt;" style="text;html=1;strokeColor=none;fillColor=none;align=center;verticalAlign=middle;whiteSpace=wrap;rounded=0;" vertex="1" parent="1">
          <mxGeometry x="700" y="570" width="90" height="20" as="geometry" />
        </mxCell>
        <mxCell id="4sNT6OaN_m4o6Sijzj47-130" value="&lt;span style=&quot;font-size: 14px&quot;&gt;Вихід&lt;/span&gt;" style="text;html=1;strokeColor=none;fillColor=none;align=center;verticalAlign=middle;whiteSpace=wrap;rounded=0;" vertex="1" parent="1">
          <mxGeometry x="830" y="570" width="90" height="20" as="geometry" />
        </mxCell>
        <mxCell id="4sNT6OaN_m4o6Sijzj47-131" value="" style="endArrow=classic;html=1;strokeWidth=1;fillColor=#f8cecc;strokeColor=#FF3333;" edge="1" parent="1">
          <mxGeometry width="50" height="50" relative="1" as="geometry">
            <mxPoint x="710" y="720" as="sourcePoint" />
            <mxPoint x="630" y="700" as="targetPoint" />
          </mxGeometry>
        </mxCell>
        <mxCell id="4sNT6OaN_m4o6Sijzj47-132" value="&lt;span style=&quot;font-size: 14px&quot;&gt;&lt;font color=&quot;#ff3333&quot;&gt;кількість оброблених деталей&lt;/font&gt;&lt;/span&gt;" style="text;html=1;strokeColor=none;fillColor=none;align=center;verticalAlign=middle;whiteSpace=wrap;rounded=0;" vertex="1" parent="1">
          <mxGeometry x="700" y="720" width="90" height="20" as="geometry" />
        </mxCell>
        <mxCell id="4sNT6OaN_m4o6Sijzj47-136" value="&lt;font style=&quot;font-size: 18px&quot;&gt;t=5&lt;/font&gt;" style="text;html=1;strokeColor=none;fillColor=none;align=center;verticalAlign=middle;whiteSpace=wrap;rounded=0;" vertex="1" parent="1">
          <mxGeometry x="780" y="310" width="40" height="20" as="geometry" />
        </mxCell>
      </root>
    </mxGraphModel>
  </diagram>
</mxfile>
